<svg width="131" height="36" viewBox="0 0 131 36" fill="none" xmlns="http://www.w3.org/2000/svg">
<path d="M39.5485 27.6831C40.6645 29.2294 42.6872 29.9449 44.8029 29.9449C47.9649 29.9449 50.5224 28.0524 50.5224 24.8904C50.5224 19.005 42.4082 21.4746 42.4082 17.3433C42.4082 16.3277 43.1522 14.8506 45.6167 14.8506C46.8954 14.8506 47.9882 15.4276 48.5462 16.2816L50.3597 14.6429C49.1274 13.1427 47.4069 12.7734 45.6167 12.7734C41.6642 12.7734 40.0367 15.4276 40.0367 17.3433C40.0367 23.7133 48.1509 21.3822 48.1509 25.1443C48.1509 26.9445 46.3374 27.8677 44.8727 27.8677C43.5475 27.8677 42.1757 27.3138 41.3852 26.1136L39.5485 27.6831ZM62.7442 20.0667C61.6514 18.8896 60.1169 18.3357 58.5127 18.3357C55.0717 18.3357 52.7467 20.736 52.7467 24.1057C52.7467 27.4754 55.1182 29.8064 58.5127 29.8064C60.1169 29.8064 61.6049 29.3218 62.6977 28.1216L61.2097 26.6445C60.5122 27.4523 59.6984 27.8677 58.5359 27.8677C56.3737 27.8677 54.9787 26.206 54.9787 24.1518C54.9787 22.0977 56.1412 20.2744 58.4197 20.2744C59.5822 20.2744 60.3959 20.6898 61.1632 21.4976L62.7442 20.0667ZM64.4976 29.5295H66.5901V23.898C66.5901 21.3592 67.9153 20.2513 69.6591 20.2513C70.9843 20.2513 72.1701 21.013 72.1701 23.0671V29.5295H74.2626V22.4901C74.2626 19.582 72.4026 18.3126 70.2636 18.3126C68.5663 18.3126 67.1713 19.1204 66.6366 20.2744H66.5901V12.081H64.4976V29.5295ZM79.1141 24.0595C79.1141 21.8438 80.5091 20.2513 82.7411 20.2513C84.973 20.2513 86.368 21.8438 86.368 24.0595C86.368 26.2752 84.973 27.8677 82.7411 27.8677C80.5091 27.8677 79.1141 26.2752 79.1141 24.0595ZM76.8821 24.0595C76.8821 27.2446 79.4628 29.8064 82.7411 29.8064C86.0193 29.8064 88.6 27.2446 88.6 24.0595C88.6 20.8745 86.0193 18.3126 82.7411 18.3126C79.4628 18.3126 76.8821 20.8745 76.8821 24.0595ZM91.3842 29.5295H93.4767V12.081H91.3842V29.5295ZM98.109 21.2207C98.8762 20.6437 99.6434 19.9744 101.248 19.9744C103.038 19.9744 103.875 21.1514 103.875 22.2824V22.744H102.34C98.9925 22.744 96.2722 23.7133 96.2722 26.5291C96.2722 28.6524 98.0392 29.8064 100.085 29.8064C101.759 29.8064 103.015 29.2756 103.945 27.8677H103.991C103.991 28.4216 104.014 28.9756 104.061 29.5295H105.921C105.851 28.9525 105.828 28.3062 105.828 27.5446V21.9592C105.828 20.0667 104.479 18.3126 101.224 18.3126C99.6899 18.3126 98.0159 18.8435 96.8535 19.9282L98.109 21.2207ZM103.875 24.2672V24.9596C103.875 26.4368 103.061 28.1447 100.736 28.1447C99.2947 28.1447 98.3647 27.6138 98.3647 26.3675C98.3647 24.6134 100.783 24.2672 102.759 24.2672H103.875ZM108.863 29.5295H110.956V24.0364C110.956 21.6361 112.072 20.5283 114.118 20.5283C114.443 20.5283 114.792 20.5975 115.141 20.6898L115.234 18.4511C114.955 18.3588 114.629 18.3126 114.304 18.3126C112.932 18.3126 111.537 19.1204 111.002 20.2744H110.956V18.5896H108.863V29.5295Z" fill="white"/>
<path d="M115.841 29.5292H118.608L123.351 22.4437L128.07 29.5292H131L124.955 20.9204L130.442 13.1886H127.652L123.42 19.4663L119.142 13.1886H116.283L121.816 20.9435L115.841 29.5292Z" fill="#92B960"/>
<path fill-rule="evenodd" clip-rule="evenodd" d="M25.2747 31.8555C30.0272 29.6142 33.216 25.4765 33.216 20.7427C33.216 13.6236 26.0042 7.19989 17.108 7.19989C16.7769 7.19989 16.1192 7.20789 15.793 7.22364C7.35613 7.63142 1 13.8886 1 20.7427C1 27.4835 7.46602 33.0158 15.7055 33.5844L15.6287 33.6327L27.2988 35.1011L25.2747 31.8555Z" fill="#92B960"/>
<path d="M27.2988 1.97899C27.4302 1.32633 28.2302 1.05439 28.6137 1V1.97899H27.2988Z" fill="black" stroke="white" stroke-width="0.3"/>
<path fill-rule="evenodd" clip-rule="evenodd" d="M3.95863 1.65271C3.41395 1.65271 2.97241 2.09102 2.97241 2.6317C2.97241 3.17238 3.41395 3.61069 3.95863 3.61069H29.5999C30.1446 3.61069 30.5861 3.17238 30.5861 2.6317C30.5861 2.09102 30.1446 1.65271 29.5999 1.65271H3.95863ZM24.3402 3.61071H8.88962V8.83199H24.3402V3.61071Z" fill="black"/>
<path d="M28.4639 2.98669L33.7237 11.4713L31.0937 10.3291L28.4639 2.98669Z" fill="black"/>
<path d="M7.7391 24.8165C10.9131 24.8165 13.4861 22.2623 13.4861 19.1115C13.4861 15.9607 10.9131 13.4065 7.7391 13.4065C4.5651 13.4065 1.99207 15.9607 1.99207 19.1115C1.99207 22.2623 4.5651 24.8165 7.7391 24.8165Z" stroke="black" stroke-width="2"/>
<path d="M26.1483 24.8165C29.3223 24.8165 31.8953 22.2623 31.8953 19.1115C31.8953 15.9607 29.3223 13.4065 26.1483 13.4065C22.9743 13.4065 20.4012 15.9607 20.4012 19.1115C20.4012 22.2623 22.9743 24.8165 26.1483 24.8165Z" stroke="black" stroke-width="2"/>
<path d="M20.6979 17.6687H13.1094V20.2332H20.6979V17.6687Z" fill="black"/>
<path d="M9.71148 21.2322C10.5285 21.2322 11.1908 20.5017 11.1908 19.6005C11.1908 18.6994 10.5285 17.9689 9.71148 17.9689C8.89449 17.9689 8.23218 18.6994 8.23218 19.6005C8.23218 20.5017 8.89449 21.2322 9.71148 21.2322Z" fill="black"/>
<path d="M23.847 21.2322C24.664 21.2322 25.3263 20.5017 25.3263 19.6005C25.3263 18.6994 24.664 17.9689 23.847 17.9689C23.03 17.9689 22.3677 18.6994 22.3677 19.6005C22.3677 20.5017 23.03 21.2322 23.847 21.2322Z" fill="black"/>
<path d="M20.7241 27.8638C20.7241 28.2243 19.3995 28.5165 17.7655 28.5165C16.1315 28.5165 14.8069 28.2243 14.8069 27.8638C14.8069 27.5034 16.2959 28.1901 17.9299 28.1901C19.5638 28.1901 20.7241 27.5034 20.7241 27.8638Z" fill="url(#paint0_linear)"/>
<defs>
<linearGradient id="paint0_linear" x1="14.1494" y1="27.5375" x2="21.0528" y2="27.5375" gradientUnits="userSpaceOnUse">
<stop offset="0.00552486" stop-opacity="0"/>
<stop offset="0.519337"/>
<stop offset="1" stop-opacity="0"/>
</linearGradient>
</defs>
</svg>
