<svg width="825" height="227" viewBox="0 0 825 227" fill="none" xmlns="http://www.w3.org/2000/svg">
<g filter="url(#filter0_d)">
<path d="M242.752 167.48C249.664 177.128 262.192 181.592 275.296 181.592C294.88 181.592 310.72 169.784 310.72 150.056C310.72 113.336 260.464 128.744 260.464 102.968C260.464 96.632 265.072 87.416 280.336 87.416C288.256 87.416 295.024 91.016 298.48 96.344L309.712 86.12C302.08 76.76 291.424 74.456 280.336 74.456C255.856 74.456 245.776 91.016 245.776 102.968C245.776 142.712 296.032 128.168 296.032 151.64C296.032 162.872 284.8 168.632 275.728 168.632C267.52 168.632 259.024 165.176 254.128 157.688L242.752 167.48ZM386.416 119.96C379.648 112.616 370.144 109.16 360.208 109.16C338.896 109.16 324.496 124.136 324.496 145.16C324.496 166.184 339.184 180.728 360.208 180.728C370.144 180.728 379.36 177.704 386.128 170.216L376.912 161C372.592 166.04 367.552 168.632 360.352 168.632C346.96 168.632 338.32 158.264 338.32 145.448C338.32 132.632 345.52 121.256 359.632 121.256C366.832 121.256 371.872 123.848 376.624 128.888L386.416 119.96ZM397.276 179H410.236V143.864C410.236 128.024 418.444 121.112 429.244 121.112C437.452 121.112 444.796 125.864 444.796 138.68V179H457.756V135.08C457.756 116.936 446.236 109.016 432.988 109.016C422.476 109.016 413.836 114.056 410.524 121.256H410.236V70.136H397.276V179ZM487.804 144.872C487.804 131.048 496.444 121.112 510.268 121.112C524.092 121.112 532.732 131.048 532.732 144.872C532.732 158.696 524.092 168.632 510.268 168.632C496.444 168.632 487.804 158.696 487.804 144.872ZM473.98 144.872C473.98 164.744 489.964 180.728 510.268 180.728C530.572 180.728 546.556 164.744 546.556 144.872C546.556 125 530.572 109.016 510.268 109.016C489.964 109.016 473.98 125 473.98 144.872ZM563.8 179H576.76V70.136H563.8V179ZM605.45 127.16C610.202 123.56 614.954 119.384 624.89 119.384C635.978 119.384 641.162 126.728 641.162 133.784V136.664H631.658C610.922 136.664 594.074 142.712 594.074 160.28C594.074 173.528 605.018 180.728 617.69 180.728C628.058 180.728 635.834 177.416 641.594 168.632H641.882C641.882 172.088 642.026 175.544 642.314 179H653.834C653.402 175.4 653.258 171.368 653.258 166.616V131.768C653.258 119.96 644.906 109.016 624.746 109.016C615.242 109.016 604.874 112.328 597.674 119.096L605.45 127.16ZM641.162 146.168V150.488C641.162 159.704 636.122 170.36 621.722 170.36C612.794 170.36 607.034 167.048 607.034 159.272C607.034 148.328 622.01 146.168 634.25 146.168H641.162ZM672.058 179H685.018V144.728C685.018 129.752 691.93 122.84 704.602 122.84C706.618 122.84 708.778 123.272 710.938 123.848L711.514 109.88C709.786 109.304 707.77 109.016 705.754 109.016C697.258 109.016 688.618 114.056 685.306 121.256H685.018V110.744H672.058V179Z" fill="black"/>
<path d="M715.274 179H732.411L761.787 134.792L791.019 179H809.163L771.723 125.288L805.707 77.048H788.427L762.219 116.216L735.723 77.048H718.011L752.283 125.432L715.274 179Z" fill="#92B960"/>
<path fill-rule="evenodd" clip-rule="evenodd" d="M154.347 193.515C183.782 179.531 203.532 153.715 203.532 124.18C203.532 79.7629 158.865 39.6841 103.766 39.6841C101.715 39.6841 97.642 39.734 95.6216 39.8323C43.3671 42.3765 4 81.4164 4 124.18C4 166.237 44.0477 200.754 95.0794 204.302L94.6036 204.603L166.883 213.765L154.347 193.515Z" fill="#92B960"/>
<path d="M166.883 7.10811C167.697 3.03604 172.652 1.33934 175.027 1V7.10811H166.883Z" fill="black" stroke="white" stroke-width="0.3"/>
<path fill-rule="evenodd" clip-rule="evenodd" d="M22.3244 5.07178C18.9509 5.07178 16.2162 7.80647 16.2162 11.1799C16.2162 14.5533 18.9509 17.288 22.3244 17.288H181.135C184.509 17.288 187.243 14.5533 187.243 11.1799C187.243 7.80647 184.509 5.07178 181.135 5.07178H22.3244ZM148.559 17.2881H52.8648V49.8646H148.559V17.2881Z" fill="black"/>
<path d="M174.099 13.396L206.676 66.3329L190.387 59.2068L174.099 13.396Z" fill="black"/>
<circle cx="45.7387" cy="114.001" r="35.5946" stroke="black" stroke-width="4"/>
<circle cx="159.757" cy="114" r="35.5946" stroke="black" stroke-width="4"/>
<rect x="79" y="105" width="47" height="16" fill="black"/>
<ellipse cx="57.9549" cy="117.055" rx="9.16216" ry="10.1802" fill="black"/>
<ellipse cx="145.504" cy="117.055" rx="9.16216" ry="10.1802" fill="black"/>
<path d="M126.162 168.608C126.162 170.857 117.958 172.68 107.838 172.68C97.7176 172.68 89.5135 170.857 89.5135 168.608C89.5135 166.359 98.7356 170.644 108.856 170.644C118.976 170.644 126.162 166.359 126.162 168.608Z" fill="url(#paint0_linear)"/>
</g>
<defs>
<filter id="filter0_d" x="0" y="0.827148" width="813.163" height="220.938" filterUnits="userSpaceOnUse" color-interpolation-filters="sRGB">
<feFlood flood-opacity="0" result="BackgroundImageFix"/>
<feColorMatrix in="SourceAlpha" type="matrix" values="0 0 0 0 0 0 0 0 0 0 0 0 0 0 0 0 0 0 127 0"/>
<feOffset dy="4"/>
<feGaussianBlur stdDeviation="2"/>
<feColorMatrix type="matrix" values="0 0 0 0 0 0 0 0 0 0 0 0 0 0 0 0 0 0 0.25 0"/>
<feBlend mode="normal" in2="BackgroundImageFix" result="effect1_dropShadow"/>
<feBlend mode="normal" in="SourceGraphic" in2="effect1_dropShadow" result="shape"/>
</filter>
<linearGradient id="paint0_linear" x1="85.4415" y1="166.572" x2="128.198" y2="166.572" gradientUnits="userSpaceOnUse">
<stop offset="0.00552486" stop-opacity="0"/>
<stop offset="0.519337"/>
<stop offset="1" stop-opacity="0"/>
</linearGradient>
</defs>
</svg>
